External Loads File
version=1
nRows=69
nColumns=13
Range=5.000000e-03-10 seconds
endheader
time 	forceRightX 	forceRightY 	forceRightZ 	pointRightX 	pointRightY 	pointRightZ 	forceLeftX 	forceLeftY 	forceLeftZ 	pointLeftX 	pointLeftY 	pointLeftZ 		
5.005000 -63.974511 -78.379375 -0.000000 0.131264 0.418737 -0.126355 26.814565 689.984163 -0.000000 0.276066 0.183642 -0.367465
5.010000 -73.733549 -86.869454 -0.000000 0.139197 0.426737 -0.126927 54.654452 689.597043 -0.000000 0.268356 0.173449 -0.367416
5.015000 -81.521715 -95.749229 -0.000000 0.147459 0.434374 -0.127569 70.712648 689.470749 -0.000000 0.259983 0.173713 -0.366975
5.020000 -89.793211 -102.486291 -0.000000 0.157031 0.441374 -0.127072 95.308786 687.354210 -0.000000 0.251344 0.168024 -0.366790
5.025000 -96.334566 -108.550862 -0.000000 0.164709 0.447860 -0.128355 113.601209 684.181290 -0.000000 0.242637 0.162914 -0.366645
5.030000 -102.273743 -112.511624 -0.000000 0.174040 0.453589 -0.127861 133.934999 678.038028 -0.000000 0.233696 0.158452 -0.366459
5.035000 -106.773476 -114.678649 -0.000000 0.182754 0.458548 -0.128790 151.755660 668.940479 -0.000000 0.224470 0.154634 -0.366216
5.040000 -109.443862 -115.073572 -0.000000 0.191913 0.462824 -0.129124 165.635341 656.711112 -0.000000 0.216812 0.151457 -0.363319
5.045000 -111.324168 -112.506783 -0.000000 0.201226 0.466368 -0.129313 182.074487 639.212247 -0.000000 0.207295 0.148956 -0.363105
5.050000 -111.664853 -107.676586 -0.000000 0.210557 0.469252 -0.129435 197.000598 616.924130 -0.000000 0.197630 0.147237 -0.362846
5.055000 -110.391132 -100.871957 -0.000000 0.219892 0.471364 -0.129551 209.806711 589.624541 -0.000000 0.188006 0.146152 -0.362605
5.060000 -107.901588 -92.029865 -0.000000 0.229164 0.472857 -0.129612 222.168888 556.231526 -0.000000 0.177151 0.145754 -0.364773
5.065000 -103.537415 -82.468479 -0.000000 0.238198 0.473727 -0.129503 228.801334 518.414162 -0.000000 0.167816 0.146031 -0.364588
5.070000 -98.054352 -71.999222 -0.000000 0.247360 0.473992 -0.129621 232.249999 475.013212 -0.000000 0.158686 0.146978 -0.364339
5.075000 -91.652073 -61.045450 -0.000000 0.256265 0.473671 -0.129584 231.450668 426.569199 -0.000000 0.149848 0.148637 -0.364140
5.080000 -84.644726 -49.789093 -0.000000 0.264842 0.472740 -0.129554 225.937549 373.909312 -0.000000 0.141388 0.150728 -0.363970
5.085000 -77.431089 -38.170331 -0.000000 0.273048 0.471138 -0.129465 215.777416 318.220916 -0.000000 0.133393 0.153503 -0.363763
5.090000 -70.446165 -25.960606 -0.000000 0.280799 0.468635 -0.129386 201.307111 261.188334 -0.000000 0.125927 0.156875 -0.363594
5.095000 -64.167274 -12.723974 -0.000000 0.288227 0.465793 -0.129267 183.299334 204.761345 -0.000000 0.118791 0.160740 -0.363403
5.100000 -59.073540 2.107057 -0.000000 0.294854 0.462333 -0.129199 162.691643 151.129762 -0.000000 0.112046 0.165165 -0.363482
5.105000 -55.598232 19.455075 -0.000000 0.301368 0.458012 -0.128761 141.172276 101.745128 -0.000000 0.105623 0.170151 -0.363184
5.110000 -54.034728 40.120661 -0.000000 0.307145 0.452840 -0.128370 119.820877 58.282201 -0.000000 0.099375 0.175757 -0.362639
5.115000 -54.613165 64.893608 -0.000000 0.312186 0.446857 -0.128009 99.682183 21.895924 -0.000000 0.093386 0.181522 -0.362103
5.120000 -57.422081 94.516277 -0.000000 0.316565 0.440336 -0.127681 81.542900 -6.867384 -0.000000 0.087828 0.187952 -0.361240
5.125000 -62.546677 129.541782 -0.000000 0.320192 0.433404 -0.127340 65.815891 -27.796302 -0.000000 0.082591 0.194831 -0.360412
5.130000 -70.189647 170.362273 -0.000000 0.323488 0.426313 -0.126574 52.726813 -41.089020 -0.000000 0.077904 0.201852 -0.359918
5.135000 -81.059257 217.070614 -0.000000 0.325555 0.419293 -0.126032 42.477777 -47.311728 -0.000000 0.073629 0.209045 -0.360808
5.140000 -94.385156 270.043937 -0.000000 0.327187 0.411035 -0.125599 34.876365 -47.750112 -0.000000 0.069768 0.216613 -0.360624
5.145000 -110.439667 328.653210 -0.000000 0.328652 0.402496 -0.124688 30.011466 -43.692631 -0.000000 0.066280 0.224574 -0.360540
5.150000 -128.080231 391.909842 -0.000000 0.330056 0.393244 -0.124215 27.724790 -36.791336 -0.000000 0.063139 0.233075 -0.360615
5.155000 -146.234093 457.846738 -0.000000 0.331112 0.383250 -0.123756 27.796741 -28.604235 -0.000000 0.060356 0.241881 -0.360635
5.160000 -161.939875 524.270239 -0.000000 0.332281 0.372622 -0.123370 29.722512 -20.489720 -0.000000 0.057979 0.251372 -0.360695
5.165000 -173.182885 588.123711 -0.000000 0.333358 0.361370 -0.123235 32.934873 -13.250202 -0.000000 0.056113 0.261182 -0.360743
5.170000 -180.001858 645.734804 -0.000000 0.333830 0.350363 -0.123028 36.777282 -7.046849 -0.000000 0.054844 0.271207 -0.360890
5.175000 -197.491735 689.996050 -0.000000 0.333889 0.339646 -0.122717 40.599912 -0.705653 -0.000000 0.054156 0.274786 -0.361037
5.180000 -193.799287 728.032633 -0.000000 0.333716 0.328649 -0.122255 43.763620 4.434222 -0.000000 0.053928 0.284827 -0.361265
5.185000 -165.891092 758.815803 -0.000000 0.333319 0.317519 -0.121996 46.440136 8.545292 -0.000000 0.054520 0.301324 -0.361418
5.190000 -151.264882 773.325760 -0.000000 0.332504 0.306850 -0.122124 48.349795 14.043702 -0.000000 0.055486 0.311413 -0.361427
5.195000 -133.144692 776.631988 -0.000000 0.331565 0.296437 -0.122140 49.763675 19.750675 -0.000000 0.057099 0.321617 -0.361665
5.200000 -111.329135 769.956585 -0.000000 0.330340 0.285918 -0.121802 50.945249 25.196327 -0.000000 0.059123 0.332001 -0.361726
5.205000 -87.156882 754.566818 -0.000000 0.328299 0.275264 -0.121956 52.079815 29.802837 -0.000000 0.061488 0.342352 -0.361244
5.210000 -61.993665 732.012028 -0.000000 0.325827 0.265031 -0.122076 53.187531 32.907357 -0.000000 0.064628 0.352989 -0.361235
5.215000 -38.807034 703.899543 -0.000000 0.322712 0.254916 -0.122092 53.978500 34.003060 -0.000000 0.068386 0.362629 -0.361403
5.220000 -14.867530 672.130090 -0.000000 0.319223 0.244912 -0.122067 54.202631 32.279929 -0.000000 0.072977 0.372497 -0.361372
5.225000 7.403997 637.960008 -0.000000 0.315135 0.235270 -0.122027 53.187017 27.485651 -0.000000 0.078061 0.381893 -0.361498
5.230000 28.751605 602.502324 -0.000000 0.310422 0.226041 -0.122029 50.291675 19.306892 -0.000000 0.083839 0.391029 -0.361625
5.235000 48.660806 566.698714 -0.000000 0.305100 0.217035 -0.121941 44.793327 7.720014 -0.000000 0.090239 0.399455 -0.361656
5.240000 68.177961 531.308213 -0.000000 0.299038 0.208422 -0.122370 36.060156 -7.205706 -0.000000 0.097405 0.407855 -0.361697
5.245000 86.293854 497.228669 -0.000000 0.292699 0.199965 -0.121978 23.598502 -25.002103 -0.000000 0.105050 0.416237 -0.361843
5.250000 102.232740 465.480654 -0.000000 0.285831 0.191815 -0.121826 7.297493 -45.071977 -0.000000 0.113120 0.424035 -0.361929
5.255000 115.582702 437.149174 -0.000000 0.278457 0.184958 -0.121690 -12.498323 -66.792455 -0.000000 0.121731 0.431199 -0.363062
5.260000 127.045411 413.021420 -0.000000 0.270892 0.178577 -0.120800 -35.170684 -89.471961 -0.000000 0.130758 0.437725 -0.362907
5.265000 138.849243 393.098838 -0.000000 0.262331 0.171576 -0.121120 -60.292949 -111.922217 -0.000000 0.139789 0.444962 -0.362600
5.270000 148.366388 378.665910 -0.000000 0.253677 0.165852 -0.120461 -85.931908 -133.235240 -0.000000 0.148945 0.451256 -0.362241
5.275000 156.501576 369.530840 -0.000000 0.244921 0.160649 -0.120527 -110.611190 -152.105952 -0.000000 0.157835 0.457183 -0.362182
5.280000 164.793266 364.649651 -0.000000 0.235720 0.156096 -0.120487 -133.274790 -166.824702 -0.000000 0.167155 0.462569 -0.362108
5.285000 172.840981 363.334106 -0.000000 0.226453 0.151704 -0.120706 -152.302842 -176.413688 -0.000000 0.176606 0.467303 -0.362091
5.290000 180.653756 364.378787 -0.000000 0.216904 0.148574 -0.120522 -166.582066 -180.299072 -0.000000 0.185980 0.471353 -0.362294
5.295000 187.947357 366.429920 -0.000000 0.207776 0.145674 -0.120929 -175.423291 -178.645197 -0.000000 0.195563 0.474653 -0.362041
5.300000 195.001533 367.642184 -0.000000 0.198459 0.143386 -0.120837 -179.040550 -171.919588 -0.000000 0.205063 0.477374 -0.362148
5.305000 201.396063 366.445323 -0.000000 0.189119 0.141754 -0.120887 -177.875401 -161.297917 -0.000000 0.214463 0.479614 -0.362276
5.310000 206.730701 361.363946 -0.000000 0.179899 0.140775 -0.120961 -172.862949 -148.038519 -0.000000 0.223835 0.481241 -0.362417
5.315000 210.777944 351.109649 -0.000000 0.170735 0.140629 -0.120931 -165.309000 -133.132722 -0.000000 0.233210 0.481769 -0.363212
5.320000 212.435263 335.375560 -0.000000 0.161845 0.140935 -0.120928 -156.267441 -117.641174 -0.000000 0.242446 0.481967 -0.363403
5.325000 211.204291 314.112397 -0.000000 0.153316 0.141834 -0.120979 -146.915387 -101.973245 -0.000000 0.251491 0.481481 -0.363731
5.330000 206.790587 287.790736 -0.000000 0.145067 0.143541 -0.120945 -138.152487 -86.193243 -0.000000 0.260211 0.480453 -0.364106
5.335000 198.929139 257.506432 -0.000000 0.137218 0.145618 -0.120793 -130.452648 -70.264013 -0.000000 0.268520 0.478859 -0.364390
5.340000 187.828173 224.559747 -0.000000 0.129901 0.148377 -0.120818 -124.059485 -53.969878 -0.000000 0.276301 0.476723 -0.364537
5.345000 174.087528 190.310664 -0.000000 0.122834 0.151623 -0.120630 -119.063276 -37.003769 -0.000000 0.283491 0.474094 -0.364816
